<svg width="76" height="28" viewBox="0 0 76 28" fill="none" xmlns="http://www.w3.org/2000/svg">
<path d="M0 8C0 3.58172 3.58172 0 8 0H68C72.4183 0 76 3.58172 76 8V20C76 24.4183 72.4183 28 68 28H8C3.58172 28 0 24.4183 0 20V8Z" fill="#C5C3C3"/>
<path d="M13.774 19.168C13.0087 19.168 12.318 18.986 11.702 18.622C11.086 18.2487 10.596 17.7073 10.232 16.998C9.87733 16.2887 9.7 15.4347 9.7 14.436C9.7 13.6893 9.80267 13.022 10.008 12.434C10.2227 11.846 10.5167 11.3467 10.89 10.936C11.2727 10.516 11.716 10.1987 12.22 9.984C12.724 9.76933 13.2653 9.662 13.844 9.662C14.4133 9.662 14.9173 9.77867 15.356 10.012C15.7947 10.236 16.154 10.502 16.434 10.81L15.664 11.734C15.4307 11.482 15.1647 11.2813 14.866 11.132C14.5767 10.9827 14.2453 10.908 13.872 10.908C13.34 10.908 12.8687 11.048 12.458 11.328C12.0567 11.608 11.7393 12.0093 11.506 12.532C11.282 13.0547 11.17 13.6753 11.17 14.394C11.17 15.122 11.2773 15.752 11.492 16.284C11.7067 16.8067 12.0147 17.2127 12.416 17.502C12.8173 17.782 13.2887 17.922 13.83 17.922C14.25 17.922 14.6233 17.8333 14.95 17.656C15.286 17.4787 15.5893 17.2407 15.86 16.942L16.63 17.838C16.266 18.258 15.846 18.5847 15.37 18.818C14.9033 19.0513 14.3713 19.168 13.774 19.168ZM20.8611 19.168C20.2917 19.168 19.7644 19.028 19.2791 18.748C18.7937 18.468 18.3971 18.062 18.0891 17.53C17.7904 16.9887 17.6411 16.34 17.6411 15.584C17.6411 14.828 17.7904 14.184 18.0891 13.652C18.3971 13.1107 18.7937 12.7 19.2791 12.42C19.7644 12.1307 20.2917 11.986 20.8611 11.986C21.4211 11.986 21.9437 12.1307 22.4291 12.42C22.9237 12.7 23.3204 13.1107 23.6191 13.652C23.9271 14.184 24.0811 14.828 24.0811 15.584C24.0811 16.34 23.9271 16.9887 23.6191 17.53C23.3204 18.062 22.9237 18.468 22.4291 18.748C21.9437 19.028 21.4211 19.168 20.8611 19.168ZM20.8611 18.006C21.2251 18.006 21.5377 17.908 21.7991 17.712C22.0697 17.5067 22.2751 17.222 22.4151 16.858C22.5551 16.494 22.6251 16.0693 22.6251 15.584C22.6251 15.0987 22.5551 14.674 22.4151 14.31C22.2751 13.9367 22.0697 13.652 21.7991 13.456C21.5377 13.2507 21.2251 13.148 20.8611 13.148C20.4971 13.148 20.1844 13.2507 19.9231 13.456C19.6617 13.652 19.4564 13.9367 19.3071 14.31C19.1671 14.674 19.0971 15.0987 19.0971 15.584C19.0971 16.0693 19.1671 16.494 19.3071 16.858C19.4564 17.222 19.6617 17.5067 19.9231 17.712C20.1844 17.908 20.4971 18.006 20.8611 18.006ZM25.7596 19V12.154H26.9216L27.0336 13.12H27.0756C27.365 12.8027 27.6823 12.5367 28.0276 12.322C28.3823 12.098 28.7696 11.986 29.1896 11.986C29.703 11.986 30.109 12.098 30.4076 12.322C30.7063 12.546 30.9303 12.854 31.0796 13.246C31.4156 12.882 31.761 12.5833 32.1156 12.35C32.4796 12.1073 32.8763 11.986 33.3056 11.986C34.0243 11.986 34.5516 12.2193 34.8876 12.686C35.233 13.1527 35.4056 13.82 35.4056 14.688V19H33.9916V14.87C33.9916 14.2727 33.8983 13.848 33.7116 13.596C33.5343 13.3347 33.245 13.204 32.8436 13.204C32.601 13.204 32.3536 13.2833 32.1016 13.442C31.8496 13.5913 31.579 13.8247 31.2896 14.142V19H29.8756V14.87C29.8756 14.2727 29.7823 13.848 29.5956 13.596C29.4183 13.3347 29.129 13.204 28.7276 13.204C28.261 13.204 27.743 13.5167 27.1736 14.142V19H25.7596ZM37.4764 21.786V12.154H38.6384L38.7504 12.91H38.7924C39.0911 12.658 39.4224 12.4433 39.7864 12.266C40.1504 12.0793 40.5238 11.986 40.9064 11.986C41.4851 11.986 41.9751 12.1307 42.3764 12.42C42.7778 12.7093 43.0811 13.1153 43.2864 13.638C43.5011 14.1607 43.6084 14.772 43.6084 15.472C43.6084 16.256 43.4684 16.9233 43.1884 17.474C42.9084 18.0247 42.5444 18.4447 42.0964 18.734C41.6578 19.0233 41.1818 19.168 40.6684 19.168C40.3604 19.168 40.0524 19.1027 39.7444 18.972C39.4364 18.832 39.1378 18.6407 38.8484 18.398L38.8904 19.56V21.786H37.4764ZM40.3884 17.992C40.7244 17.992 41.0231 17.8987 41.2844 17.712C41.5551 17.516 41.7651 17.2313 41.9144 16.858C42.0731 16.4847 42.1524 16.0273 42.1524 15.486C42.1524 15.01 42.0964 14.5993 41.9844 14.254C41.8724 13.8993 41.6951 13.6287 41.4524 13.442C41.2191 13.2553 40.9111 13.162 40.5284 13.162C40.2671 13.162 40.0011 13.232 39.7304 13.372C39.4691 13.5027 39.1891 13.7127 38.8904 14.002V17.362C39.1611 17.5953 39.4271 17.7587 39.6884 17.852C39.9498 17.9453 40.1831 17.992 40.3884 17.992ZM46.7244 19.168C46.3791 19.168 46.1038 19.098 45.8984 18.958C45.6931 18.818 45.5438 18.6173 45.4504 18.356C45.3571 18.0947 45.3104 17.7773 45.3104 17.404V9.074H46.7244V17.488C46.7244 17.6747 46.7571 17.81 46.8224 17.894C46.8971 17.9687 46.9764 18.006 47.0604 18.006C47.0978 18.006 47.1304 18.006 47.1584 18.006C47.1958 17.9967 47.2471 17.9873 47.3124 17.978L47.4944 19.042C47.4011 19.0793 47.2938 19.1073 47.1724 19.126C47.0511 19.154 46.9018 19.168 46.7244 19.168ZM51.8578 19.168C51.2325 19.168 50.6678 19.028 50.1638 18.748C49.6692 18.4587 49.2725 18.048 48.9738 17.516C48.6752 16.984 48.5258 16.34 48.5258 15.584C48.5258 14.8467 48.6752 14.212 48.9738 13.68C49.2725 13.1387 49.6598 12.7233 50.1358 12.434C50.6118 12.1353 51.1158 11.986 51.6478 11.986C52.2452 11.986 52.7492 12.1213 53.1598 12.392C53.5798 12.6627 53.8972 13.0407 54.1118 13.526C54.3265 14.0113 54.4338 14.576 54.4338 15.22C54.4338 15.3507 54.4245 15.486 54.4058 15.626C54.3965 15.7567 54.3825 15.864 54.3638 15.948H49.6318L49.6178 14.968H53.2018C53.2018 14.3707 53.0712 13.9087 52.8098 13.582C52.5578 13.2553 52.1798 13.092 51.6758 13.092C51.3772 13.092 51.0878 13.176 50.8078 13.344C50.5278 13.512 50.2945 13.7827 50.1078 14.156C49.9305 14.52 49.8418 14.996 49.8418 15.584C49.8418 16.1533 49.9445 16.62 50.1498 16.984C50.3552 17.348 50.6212 17.6187 50.9478 17.796C51.2838 17.9733 51.6478 18.062 52.0398 18.062C52.3478 18.062 52.6325 18.0153 52.8938 17.922C53.1645 17.8287 53.4258 17.7027 53.6778 17.544L54.1678 18.44C53.8505 18.6453 53.4958 18.818 53.1038 18.958C52.7212 19.098 52.3058 19.168 51.8578 19.168ZM58.3252 19.168C57.5598 19.168 57.0232 18.9487 56.7152 18.51C56.4072 18.062 56.2532 17.4833 56.2532 16.774V13.288H55.2592V12.224L56.3232 12.154L56.4912 10.264H57.6672V12.154H59.4592V13.288H57.6672V16.788C57.6672 17.1893 57.7465 17.4973 57.9052 17.712C58.0638 17.9267 58.3205 18.034 58.6752 18.034C58.7965 18.034 58.9225 18.02 59.0532 17.992C59.1932 17.9547 59.3145 17.9127 59.4172 17.866L59.6692 18.916C59.4825 18.9813 59.2725 19.0373 59.0392 19.084C58.8058 19.14 58.5678 19.168 58.3252 19.168ZM63.7934 19.168C63.168 19.168 62.6034 19.028 62.0994 18.748C61.6047 18.4587 61.208 18.048 60.9094 17.516C60.6107 16.984 60.4614 16.34 60.4614 15.584C60.4614 14.8467 60.6107 14.212 60.9094 13.68C61.208 13.1387 61.5954 12.7233 62.0714 12.434C62.5474 12.1353 63.0514 11.986 63.5834 11.986C64.1807 11.986 64.6847 12.1213 65.0954 12.392C65.5154 12.6627 65.8327 13.0407 66.0474 13.526C66.262 14.0113 66.3694 14.576 66.3694 15.22C66.3694 15.3507 66.36 15.486 66.3414 15.626C66.332 15.7567 66.318 15.864 66.2994 15.948H61.5674L61.5534 14.968H65.1374C65.1374 14.3707 65.0067 13.9087 64.7454 13.582C64.4934 13.2553 64.1154 13.092 63.6114 13.092C63.3127 13.092 63.0234 13.176 62.7434 13.344C62.4634 13.512 62.23 13.7827 62.0434 14.156C61.866 14.52 61.7774 14.996 61.7774 15.584C61.7774 16.1533 61.88 16.62 62.0854 16.984C62.2907 17.348 62.5567 17.6187 62.8834 17.796C63.2194 17.9733 63.5834 18.062 63.9754 18.062C64.2834 18.062 64.568 18.0153 64.8294 17.922C65.1 17.8287 65.3614 17.7027 65.6134 17.544L66.1034 18.44C65.786 18.6453 65.4314 18.818 65.0394 18.958C64.6567 19.098 64.2414 19.168 63.7934 19.168Z" fill="white"/>
</svg>
